<svg width="58" height="24" viewBox="0 0 58 24" fill="none" xmlns="http://www.w3.org/2000/svg">
<path d="M22.34 9.33L20.34 8.33C19.97 8.15 19.51 8.29 19.33 8.66C19.14 9.04 19.29 9.49 19.66 9.67L21.25 10.46V15.25L17.5 15.26V5C17.5 3 16.16 2 14.5 2H6.5C4.84 2 3.5 3 3.5 5V21.25H2C1.59 21.25 1.25 21.59 1.25 22C1.25 22.41 1.59 22.75 2 22.75H19C19.41 22.75 19.75 22.41 19.75 22C19.75 21.59 19.41 21.25 19 21.25H17.5V16.76L22 16.75C22.42 16.75 22.75 16.41 22.75 16V10C22.75 9.72 22.59 9.46 22.34 9.33ZM6 6.89C6 5.5 6.85 5 7.89 5H13.12C14.15 5 15 5.5 15 6.89V8.12C15 9.5 14.15 10 13.11 10H7.89C6.85 10 6 9.5 6 8.11V6.89ZM6.5 12.25H9.5C9.91 12.25 10.25 12.59 10.25 13C10.25 13.41 9.91 13.75 9.5 13.75H6.5C6.09 13.75 5.75 13.41 5.75 13C5.75 12.59 6.09 12.25 6.5 12.25Z" fill="#90A3BF"/>
<path d="M31.792 18L35.39 13.31L35.642 13.338C35.502 13.5247 35.348 13.674 35.18 13.786C35.012 13.8887 34.8253 13.9633 34.62 14.01C34.424 14.0567 34.2093 14.08 33.976 14.08C33.36 14.08 32.8047 13.94 32.31 13.66C31.8247 13.3707 31.4373 12.9787 31.148 12.484C30.868 11.98 30.728 11.406 30.728 10.762C30.728 10.118 30.8773 9.544 31.176 9.04C31.4747 8.536 31.8853 8.13933 32.408 7.85C32.9307 7.55133 33.5187 7.402 34.172 7.402C34.844 7.402 35.4367 7.55133 35.95 7.85C36.4727 8.13933 36.8833 8.54533 37.182 9.068C37.4807 9.58133 37.63 10.174 37.63 10.846C37.63 11.21 37.588 11.5693 37.504 11.924C37.42 12.2787 37.2847 12.638 37.098 13.002C36.9207 13.366 36.6827 13.744 36.384 14.136L33.444 18H31.792ZM34.172 12.876C34.5733 12.876 34.928 12.7873 35.236 12.61C35.5533 12.4233 35.8007 12.1713 35.978 11.854C36.1553 11.5273 36.244 11.1633 36.244 10.762C36.244 10.342 36.1507 9.97333 35.964 9.656C35.7867 9.33867 35.544 9.08667 35.236 8.9C34.928 8.71333 34.5733 8.62 34.172 8.62C33.78 8.62 33.43 8.71333 33.122 8.9C32.814 9.08667 32.5667 9.33867 32.38 9.656C32.2027 9.97333 32.114 10.342 32.114 10.762C32.114 11.1633 32.2027 11.5273 32.38 11.854C32.5573 12.1713 32.8 12.4233 33.108 12.61C33.4253 12.7873 33.78 12.876 34.172 12.876ZM43.1829 18.168C42.3522 18.168 41.6242 17.944 40.9989 17.496C40.3829 17.0387 39.9022 16.4087 39.5569 15.606C39.2115 14.794 39.0389 13.8513 39.0389 12.778C39.0389 11.7047 39.2115 10.7667 39.5569 9.964C39.9022 9.152 40.3829 8.522 40.9989 8.074C41.6149 7.626 42.3382 7.402 43.1689 7.402C43.9995 7.402 44.7229 7.626 45.3389 8.074C45.9549 8.522 46.4355 9.152 46.7809 9.964C47.1355 10.7667 47.3129 11.7047 47.3129 12.778C47.3129 13.8513 47.1402 14.794 46.7949 15.606C46.4495 16.418 45.9642 17.048 45.3389 17.496C44.7229 17.944 44.0042 18.168 43.1829 18.168ZM43.1829 16.894C43.7429 16.894 44.2282 16.726 44.6389 16.39C45.0495 16.0447 45.3669 15.564 45.5909 14.948C45.8242 14.332 45.9409 13.6087 45.9409 12.778C45.9409 11.9473 45.8242 11.224 45.5909 10.608C45.3669 9.992 45.0449 9.516 44.6249 9.18C44.2142 8.844 43.7289 8.676 43.1689 8.676C42.6089 8.676 42.1235 8.844 41.7129 9.18C41.3022 9.516 40.9802 9.992 40.7469 10.608C40.5229 11.224 40.4109 11.9473 40.4109 12.778C40.4109 13.5993 40.5229 14.318 40.7469 14.934C40.9802 15.55 41.3022 16.0307 41.7129 16.376C42.1329 16.7213 42.6229 16.894 43.1829 16.894ZM49.1137 18V7.57H50.4857V16.74H55.0637V18H49.1137Z" fill="#90A3BF"/>
</svg>
