<svg width="76" height="24" viewBox="0 0 76 24" fill="none" xmlns="http://www.w3.org/2000/svg">
<path d="M12 2C6.48 2 2 6.48 2 12C2 17.52 6.48 22 12 22C17.52 22 22 17.52 22 12C22 6.48 17.53 2 12 2Z" fill="#90A3BF"/>
<rect x="4" y="4" width="16" height="16" rx="8" fill="white"/>
<path d="M12 6C8.688 6 6 8.688 6 12C6 15.312 8.688 18 12 18C15.312 18 18 15.312 18 12C18 8.688 15.318 6 12 6Z" fill="#90A3BF"/>
<rect x="8" y="8" width="8" height="8" rx="4" fill="white"/>
<rect x="11" y="17" width="2" height="4" fill="#90A3BF"/>
<rect x="17" y="11" width="4" height="2" fill="#90A3BF"/>
<rect x="3" y="11" width="4" height="2" fill="#90A3BF"/>
<path d="M29.162 18V7.57H30.422L34.328 13.128H33.684L37.562 7.57H38.822V18H37.436V9.306L37.926 9.46L34.048 14.92H33.936L30.1 9.46L30.534 9.306V18H29.162ZM43.1966 18.168C42.7019 18.168 42.2632 18.0793 41.8806 17.902C41.5072 17.7153 41.2132 17.4633 40.9986 17.146C40.7839 16.8193 40.6766 16.446 40.6766 16.026C40.6766 15.6247 40.7606 15.2653 40.9286 14.948C41.1059 14.6213 41.3766 14.346 41.7406 14.122C42.1139 13.898 42.5806 13.7393 43.1406 13.646L45.9406 13.184V14.276L43.4346 14.696C42.9492 14.78 42.5946 14.934 42.3706 15.158C42.1559 15.382 42.0486 15.6573 42.0486 15.984C42.0486 16.292 42.1699 16.5487 42.4126 16.754C42.6646 16.9593 42.9772 17.062 43.3506 17.062C43.8266 17.062 44.2372 16.964 44.5826 16.768C44.9372 16.5627 45.2126 16.2873 45.4086 15.942C45.6139 15.5967 45.7166 15.214 45.7166 14.794V12.876C45.7166 12.4653 45.5626 12.134 45.2546 11.882C44.9559 11.6207 44.5592 11.49 44.0646 11.49C43.6352 11.49 43.2526 11.602 42.9166 11.826C42.5899 12.0407 42.3472 12.33 42.1886 12.694L41.0546 12.106C41.1946 11.7607 41.4186 11.4527 41.7266 11.182C42.0346 10.902 42.3939 10.6827 42.8046 10.524C43.2152 10.3653 43.6446 10.286 44.0926 10.286C44.6712 10.286 45.1799 10.398 45.6186 10.622C46.0572 10.8367 46.3979 11.14 46.6406 11.532C46.8926 11.9147 47.0186 12.3627 47.0186 12.876V18H45.7446V16.572L45.9826 16.656C45.8239 16.9547 45.6092 17.216 45.3386 17.44C45.0679 17.664 44.7506 17.8413 44.3866 17.972C44.0226 18.1027 43.6259 18.168 43.1966 18.168ZM49.0373 18V10.454H50.3113V11.924L50.1013 11.798C50.288 11.322 50.5866 10.9533 50.9973 10.692C51.4173 10.4213 51.9073 10.286 52.4673 10.286C53.0086 10.286 53.4893 10.4073 53.9093 10.65C54.3386 10.8927 54.6746 11.2287 54.9173 11.658C55.1693 12.0873 55.2953 12.5727 55.2953 13.114V18H53.9793V13.534C53.9793 13.114 53.9046 12.7593 53.7553 12.47C53.606 12.1807 53.3913 11.9567 53.1113 11.798C52.8406 11.63 52.528 11.546 52.1733 11.546C51.8186 11.546 51.5013 11.63 51.2213 11.798C50.9506 11.9567 50.736 12.1853 50.5773 12.484C50.4186 12.7733 50.3393 13.1233 50.3393 13.534V18H49.0373ZM59.8324 18.168C59.2911 18.168 58.8011 18.042 58.3624 17.79C57.9331 17.538 57.5971 17.188 57.3544 16.74C57.1211 16.2827 57.0044 15.76 57.0044 15.172V10.454H58.3064V15.032C58.3064 15.4053 58.3811 15.732 58.5304 16.012C58.6891 16.292 58.9037 16.5113 59.1744 16.67C59.4544 16.8287 59.7717 16.908 60.1264 16.908C60.4811 16.908 60.7937 16.8287 61.0644 16.67C61.3444 16.5113 61.5591 16.2827 61.7084 15.984C61.8671 15.6853 61.9464 15.3307 61.9464 14.92V10.454H63.2624V18H61.9884V16.53L62.1984 16.656C62.0211 17.132 61.7177 17.5053 61.2884 17.776C60.8684 18.0373 60.3831 18.168 59.8324 18.168ZM67.4915 18.168C66.9968 18.168 66.5582 18.0793 66.1755 17.902C65.8022 17.7153 65.5082 17.4633 65.2935 17.146C65.0788 16.8193 64.9715 16.446 64.9715 16.026C64.9715 15.6247 65.0555 15.2653 65.2235 14.948C65.4008 14.6213 65.6715 14.346 66.0355 14.122C66.4088 13.898 66.8755 13.7393 67.4355 13.646L70.2355 13.184V14.276L67.7295 14.696C67.2442 14.78 66.8895 14.934 66.6655 15.158C66.4508 15.382 66.3435 15.6573 66.3435 15.984C66.3435 16.292 66.4648 16.5487 66.7075 16.754C66.9595 16.9593 67.2722 17.062 67.6455 17.062C68.1215 17.062 68.5322 16.964 68.8775 16.768C69.2322 16.5627 69.5075 16.2873 69.7035 15.942C69.9088 15.5967 70.0115 15.214 70.0115 14.794V12.876C70.0115 12.4653 69.8575 12.134 69.5495 11.882C69.2508 11.6207 68.8542 11.49 68.3595 11.49C67.9302 11.49 67.5475 11.602 67.2115 11.826C66.8848 12.0407 66.6422 12.33 66.4835 12.694L65.3495 12.106C65.4895 11.7607 65.7135 11.4527 66.0215 11.182C66.3295 10.902 66.6888 10.6827 67.0995 10.524C67.5102 10.3653 67.9395 10.286 68.3875 10.286C68.9662 10.286 69.4748 10.398 69.9135 10.622C70.3522 10.8367 70.6928 11.14 70.9355 11.532C71.1875 11.9147 71.3135 12.3627 71.3135 12.876V18H70.0395V16.572L70.2775 16.656C70.1188 16.9547 69.9042 17.216 69.6335 17.44C69.3628 17.664 69.0455 17.8413 68.6815 17.972C68.3175 18.1027 67.9208 18.168 67.4915 18.168ZM73.3322 18V7.402H74.6342V18H73.3322Z" fill="#90A3BF"/>
</svg>
